Coordinates
version=1
nRows=11
nColumns=40
inDegrees=yes

Units are S.I. units (second, meters, Newtons, ...)
Angles are in degrees.

endheader
time	pelvis_tilt	pelvis_list	pelvis_rotation	pelvis_tx	pelvis_ty	pelvis_tz	hip_flexion_r	hip_adduction_r	hip_rotation_r	knee_angle_r	knee_angle_r_beta	ankle_angle_r	subtalar_angle_r	mtp_angle_r	hip_flexion_l	hip_adduction_l	hip_rotation_l	knee_angle_l	knee_angle_l_beta	ankle_angle_l	subtalar_angle_l	mtp_angle_l	lumbar_extension	lumbar_bending	lumbar_rotation	arm_flex_r	arm_add_r	arm_rot_r	elbow_flex_r	pro_sup_r	wrist_flex_r	wrist_dev_r	arm_flex_l	arm_add_l	arm_rot_l	elbow_flex_l	pro_sup_l	wrist_flex_l	wrist_dev_l
      1.19000000	     -1.85669305	     -4.92327336	      3.80668617	      1.09311402	      0.93473211	      0.49463278	      8.75280646	      3.45819108	    -16.15393106	     14.33393507	     14.33393507	     10.07780385	      4.27672503	     -4.90669520	     28.51303693	    -13.91574487	      0.12390126	     58.87393812	     58.87393812	      8.77494453	    -16.77939287	      8.27386347	    -10.23551172	      6.56037449	      1.50298082	     20.96260872	    -22.89830912	     -2.99211135	     75.59921801	     45.72878923	      0.00000000	      0.00000000	      3.17587228	    -10.92144212	     -3.21978633	     29.56379698	     45.70444406	      0.00000000	      0.00000000
      1.20357143	     -2.17355737	     -4.77796991	      4.10812039	      1.09115516	      0.93473134	      0.49497963	      8.55865359	      3.40801407	    -16.22918402	     13.84676446	     13.84676446	     10.19295042	      4.17258186	     -4.89614116	     29.73740584	    -13.61239781	     -0.06752413	     56.40340310	     56.40340310	      9.00415106	    -16.89180058	      8.46365301	    -10.09794766	      6.49302484	      1.94652843	     22.25102664	    -23.19388152	     -3.27266836	     76.37827364	     45.71609241	      0.00000000	      0.00000000	      2.08499515	    -10.44148753	     -3.14814003	     29.23266791	     45.67755224	      0.00000000	      0.00000000
      1.21714286	     -2.45817618	     -4.68059979	      4.43242029	      1.08916583	      0.93471959	      0.49521767	      8.32506098	      3.40828119	    -16.36884166	     13.32577488	     13.32577488	     10.21070680	      4.08461409	     -4.88562680	     30.74440876	    -13.27500736	     -0.23325503	     53.60393749	     53.60393749	      9.14226548	    -17.03590868	      8.72194570	    -10.09171377	      6.46056591	      2.21198757	     23.51939437	    -23.37455097	     -3.52489307	     77.28412596	     45.69841591	      0.00000000	      0.00000000	      0.99080520	    -10.01633184	     -3.06765892	     28.93919397	     45.64854257	      0.00000000	      0.00000000
      1.23071429	     -2.62601293	     -4.54165802	      4.79902857	      1.08735781	      0.93489053	      0.49537826	      7.83471264	      3.40873815	    -16.48598807	     12.57687047	     12.57687047	     10.19982816	      4.04511631	     -4.95071273	     31.38358775	    -12.75081524	     -0.24469245	     50.42003474	     50.42003474	      9.08288533	    -17.30890726	      9.04101910	    -10.17721380	      6.39646697	      2.23422351	     24.82947505	    -23.16614360	     -3.68438908	     78.65741543	     45.66123812	      0.00000000	      0.00000000	     -0.24242854	     -9.77766922	     -2.97007686	     28.70172876	     45.61573070	      0.00000000	      0.00000000
      1.24428571	     -2.82347502	     -4.46519481	      5.14715675	      1.08555613	      0.93481633	      0.49544129	      7.47952514	      3.43784411	    -16.61896648	     12.00619117	     12.00619117	     10.19893720	      3.96777011	     -5.11658914	     31.93918760	    -12.29092794	     -0.28759110	     47.08004888	     47.08004888	      9.01139942	    -17.25421506	      9.35478430	    -10.23262376	      6.39605739	      2.37303280	     26.05739345	    -23.12969020	     -3.84018341	     79.83819857	     45.63013858	      0.00000000	      0.00000000	     -1.40961954	     -9.47242497	     -2.86081698	     28.57600554	     45.58139620	      0.00000000	      0.00000000
      1.25785714	     -2.96337806	     -4.43171497	      5.51570612	      1.08380992	      0.93471540	      0.49536895	      7.06516779	      3.51193875	    -16.79440467	     11.42289653	     11.42289653	     10.10760895	      3.86436990	     -5.51787367	     32.29692454	    -11.79940547	     -0.21931503	     43.53444237	     43.53444237	      8.76313378	    -17.07488739	      9.50405185	    -10.37873640	      6.47587546	      2.37254675	     27.22141970	    -22.97476249	     -3.93236735	     81.22110017	     45.58883224	      0.00000000	      0.00000000	     -2.64532793	     -9.19124914	     -2.67750656	     28.64222735	     45.53672919	      0.00000000	      0.00000000
      1.27142857	     -3.18036100	     -4.37612395	      5.82864822	      1.08204956	      0.93438962	      0.49521143	      6.84356771	      3.51567188	    -16.91332644	     11.05298160	     11.05298160	     10.10929559	      3.70933658	     -5.85764809	     32.61410395	    -11.28656374	     -0.22167087	     39.89519712	     39.89519712	      8.50511734	    -16.53204396	      9.69855120	    -10.41769297	      6.50192138	      2.57068677	     28.26910630	    -22.96535361	     -4.03544178	     82.13817698	     45.56375703	      0.00000000	      0.00000000	     -3.66713341	     -8.90695341	     -2.50604487	     28.60800094	     45.49706788	      0.00000000	      0.00000000
      1.28500000	     -3.41944052	     -4.37365319	      6.14121027	      1.08033132	      0.93391367	      0.49498250	      6.69502279	      3.55353777	    -17.03965728	     10.77172955	     10.77172955	     10.17476499	      3.57050433	     -6.10277324	     32.90507136	    -10.81411326	     -0.18564225	     36.27947084	     36.27947084	      8.22361122	    -15.58978351	      9.96047012	    -10.40419058	      6.52963428	      2.78534935	     29.26841637	    -22.94208563	     -4.13314555	     82.88601257	     45.54500804	      0.00000000	      0.00000000	     -4.56277603	     -8.59621224	     -2.36017011	     28.45892796	     45.46248431	      0.00000000	      0.00000000
      1.29857143	     -3.62931063	     -4.39129712	      6.45834234	      1.07871085	      0.93341887	      0.49461266	      6.52981218	      3.60093745	    -17.18741849	     10.52629515	     10.52629515	     10.25336711	      3.44603614	     -6.32760769	     33.07953872	    -10.33705949	     -0.11560696	     32.68906981	     32.68906981	      7.89187031	    -14.37124372	     10.19829144	    -10.42087378	      6.59456935	      2.92747939	     30.19413342	    -22.80766133	     -4.19078821	     83.60159452	     45.52593608	      0.00000000	      0.00000000	     -5.37568281	     -8.29065315	     -2.21178643	     28.27107906	     45.42875426	      0.00000000	      0.00000000
      1.31214286	     -3.71712319	     -4.43816907	      6.77055948	      1.07732795	      0.93302044	      0.49413115	      6.20737562	      3.68922717	    -17.38189150	     10.25754064	     10.25754064	     10.31220632	      3.38945284	     -6.68761208	     33.03007309	     -9.90617333	     -0.04334649	     29.18341276	     29.18341276	      7.38158755	    -12.91448040	     10.02490448	    -10.54294455	      6.71660098	      2.90736218	     31.09708010	    -22.40945702	     -4.15999807	     84.40700791	     45.49936917	      0.00000000	      0.00000000	     -6.21230649	     -8.04056921	     -1.95756460	     28.07115542	     45.38134876	      0.00000000	      0.00000000
      1.32571429	     -3.90406150	     -4.51303319	      7.04451841	      1.07590717	      0.93244749	      0.49363318	      6.02994395	      3.77870964	    -17.56388381	     10.05603455	     10.05603455	     10.42414641	      3.36543943	     -6.92316713	     33.10823345	     -9.54029536	     -0.08845371	     25.99166095	     25.99166095	      6.83741752	    -11.17850814	     10.10523075	    -10.56198138	      6.80533498	      3.02735791	     31.79293155	    -22.16892584	     -4.13153899	     84.86932267	     45.48427914	      0.00000000	      0.00000000	     -6.86647026	     -7.78808904	     -1.76297682	     27.85117982	     45.34492765	      0.00000000	      0.00000000
